HIERARCHY
ROOT joint_0
{
	OFFSET 0.000000 0.000000 0.000000
	CHANNELS 6 Xposition Yposition Zposition Zrotation Yrotation Xrotation 
	JOINT joint_1
	{
		OFFSET 7.566162 2.250183 114.799927
		CHANNELS 3 Zrotation Yrotation Xrotation
		JOINT joint_2
		{
			OFFSET -5.201660 -0.414001 104.936035
			CHANNELS 3 Zrotation Yrotation Xrotation
			JOINT joint_3
			{
				OFFSET -6.923584 -0.419739 104.718018
				CHANNELS 3 Zrotation Yrotation Xrotation
				JOINT joint_4
				{
					OFFSET 3.108887 2.881104 149.449951
					CHANNELS 3 Zrotation Yrotation Xrotation
					JOINT joint_5
					{
						OFFSET 19.988770 5.920349 90.786987
						CHANNELS 3 Zrotation Yrotation Xrotation
						End Site
						{
							OFFSET 0.000000 0.000000 0.000000
						}
					}
				}
				JOINT joint_6
				{
					OFFSET 9.283936 -30.015930 84.410034
					CHANNELS 3 Zrotation Yrotation Xrotation
					JOINT joint_7
					{
						OFFSET 47.243164 -155.716736 -23.241089
						CHANNELS 3 Zrotation Yrotation Xrotation
						JOINT joint_8
						{
							OFFSET 31.323730 -15.356873 -268.798950
							CHANNELS 3 Zrotation Yrotation Xrotation
							JOINT joint_9
							{
								OFFSET 28.122314 -2.114624 -262.450012
								CHANNELS 3 Zrotation Yrotation Xrotation
								End Site
								{
									OFFSET 0.000000 0.000000 0.000000
								}
							}
						}
					}
				}
				JOINT joint_10
				{
					OFFSET -5.580566 33.311218 83.498047
					CHANNELS 3 Zrotation Yrotation Xrotation
					JOINT joint_11
					{
						OFFSET -22.773438 160.515381 -27.138062
						CHANNELS 3 Zrotation Yrotation Xrotation
						JOINT joint_12
						{
							OFFSET 27.004395 30.848877 -267.937988
							CHANNELS 3 Zrotation Yrotation Xrotation
							JOINT joint_13
							{
								OFFSET 32.625000 14.824585 -261.518005
								CHANNELS 3 Zrotation Yrotation Xrotation
								End Site
								{
									OFFSET 0.000000 0.000000 0.000000
								}
							}
						}
					}
				}
			}
		}
	}
	JOINT joint_14
	{
		OFFSET 20.623535 -83.447632 -106.174011
		CHANNELS 3 Zrotation Yrotation Xrotation
		JOINT joint_15
		{
			OFFSET 0.661865 -23.563843 -459.915039
			CHANNELS 3 Zrotation Yrotation Xrotation
			JOINT joint_16
			{
				OFFSET -23.461670 -28.727966 -444.760971
				CHANNELS 3 Zrotation Yrotation Xrotation
				JOINT joint_17
				{
					OFFSET 178.992920 54.047363 -80.113001
					CHANNELS 3 Zrotation Yrotation Xrotation
					End Site
					{
						OFFSET 0.000000 0.000000 0.000000
					}
				}
			}
		}
	}
	JOINT joint_18
	{
		OFFSET -19.571533 84.686279 -105.380005
		CHANNELS 3 Zrotation Yrotation Xrotation
		JOINT joint_19
		{
			OFFSET -22.949951 3.639404 -459.933044
			CHANNELS 3 Zrotation Yrotation Xrotation
			JOINT joint_20
			{
				OFFSET -33.690674 4.092651 -445.010971
				CHANNELS 3 Zrotation Yrotation Xrotation
				JOINT joint_21
				{
					OFFSET 187.419678 18.953857 -76.759001
					CHANNELS 3 Zrotation Yrotation Xrotation
					End Site
					{
						OFFSET 0.000000 0.000000 0.000000
					}
				}
			}
		}
	}
}
MOTION
Frames: 17
Frame Time: 0.016667
-2797.462158 970.177124 1081.925049 9.843713 0.617917 -0.321864 -1.072569 11.366205 5.970852 1.477180 -1.591092 -1.304336 2.171822 2.028458 0.851794 0.636871 -3.067878 -1.240077 0.000000 0.000000 0.000000 0.020517 3.598781 -6.266760 -16.293388 1.177477 -15.881282 -4.580151 -34.324012 86.033274 0.000000 0.000000 0.000000 3.121568 15.554907 1.108159 2.334752 10.634143 13.167682 172.249166 -83.990170 160.880993 0.000000 0.000000 0.000000 -0.647557 -18.916073 -0.520260 -4.754790 36.446985 -9.028535 -1.379703 -7.118133 1.626358 0.000000 0.000000 0.000000 -8.457372 -2.761420 10.867813 -6.598073 47.132468 -18.955678 -11.867297 2.329724 -4.114803 0.000000 0.000000 0.000000 
-2792.097656 970.256042 1084.489990 10.802741 0.563600 -0.017875 -1.352940 11.079527 5.930221 1.462668 -1.580590 -1.333980 2.210318 1.978660 0.866170 0.604474 -2.693849 -1.280544 0.000000 0.000000 0.000000 0.116427 3.405032 -6.078266 -15.518559 0.967603 -15.859170 -3.975749 -30.974791 85.412616 0.000000 0.000000 0.000000 2.948458 14.557829 0.894969 2.234048 10.231063 13.724320 172.192471 -86.465471 161.400737 0.000000 0.000000 0.000000 -0.810061 -18.257197 -0.758613 -5.056492 36.122893 -9.302090 -1.678739 -6.958303 1.459348 0.000000 0.000000 0.000000 -9.057237 -3.934690 11.646521 -7.235260 49.309400 -20.102333 -12.884868 2.654695 -4.469678 0.000000 0.000000 0.000000 
-2787.265137 971.136047 1087.496948 11.689349 0.446442 0.268129 -1.578982 10.812066 5.885910 1.462904 -1.559427 -1.348963 2.253866 1.918994 0.860549 0.563779 -2.330807 -1.283137 0.000000 0.000000 0.000000 0.199543 3.256546 -5.920884 -14.862127 0.816360 -15.821190 -3.482153 -28.006133 84.706121 0.000000 0.000000 0.000000 2.798101 13.531774 0.746112 2.119535 9.771153 14.200917 172.083680 -89.001381 161.665983 0.000000 0.000000 0.000000 -0.966242 -17.459003 -1.036360 -5.296622 35.580136 -9.488522 -1.950202 -6.694484 1.270666 0.000000 0.000000 0.000000 -9.445194 -5.001131 12.257656 -7.697904 51.332952 -21.022423 -13.390366 2.704059 -4.614061 0.000000 0.000000 0.000000 
-2782.792969 972.991821 1090.925049 12.487532 0.164294 0.547160 -1.757485 10.639899 5.790286 1.502799 -1.528463 -1.320608 2.323784 1.871073 0.818242 0.512252 -2.008877 -1.220221 0.000000 0.000000 0.000000 0.249591 3.137598 -5.816392 -14.310400 0.744120 -15.695907 -3.101185 -25.433859 83.737337 0.000000 0.000000 0.000000 2.665663 12.483445 0.715618 2.020496 9.245626 14.648209 -8.067104 -88.500558 -18.417143 0.000000 0.000000 0.000000 -1.101301 -16.418592 -1.416261 -5.435303 34.853655 -9.525119 -2.136728 -6.281218 1.068575 0.000000 0.000000 0.000000 -9.630268 -5.801697 12.618752 -7.954900 53.241983 -21.719905 -13.327601 2.228679 -4.488979 0.000000 0.000000 0.000000 
-2778.852295 975.649902 1094.796021 13.227121 -0.169148 0.819043 -1.887887 10.467218 5.661702 1.554597 -1.478758 -1.263776 2.390802 1.815768 0.760317 0.453330 -1.702644 -1.117625 0.000000 0.000000 0.000000 0.288848 3.065376 -5.751192 -13.864506 0.737503 -15.540241 -2.831364 -23.205525 82.667474 0.000000 0.000000 0.000000 2.548642 11.407717 0.736835 1.906678 8.667596 15.019210 -8.257929 -85.942963 -18.757680 0.000000 0.000000 0.000000 -1.246628 -15.242348 -1.849322 -5.510197 33.900108 -9.476141 -2.299296 -5.760007 0.841970 0.000000 0.000000 0.000000 -9.625201 -6.510579 12.797169 -8.038084 55.020603 -22.217328 -12.752443 1.408360 -4.126915 0.000000 0.000000 0.000000 
-2775.490967 978.704773 1098.475952 13.912356 -0.445753 1.032390 -1.983457 10.308399 5.557972 1.562032 -1.437245 -1.217439 2.401241 1.764533 0.722460 0.398953 -1.454828 -1.004368 0.000000 0.000000 0.000000 0.321812 3.034750 -5.731095 -13.575316 0.758997 -15.444000 -2.684815 -21.528424 81.787539 0.000000 0.000000 0.000000 2.458895 10.489251 0.721325 1.791335 8.149833 15.267721 -8.453940 -83.783160 -19.220015 0.000000 0.000000 0.000000 -1.429380 -14.211332 -2.240263 -5.571789 33.005844 -9.410097 -2.441662 -5.163313 0.599627 0.000000 0.000000 0.000000 -9.417715 -7.217091 12.902335 -7.941703 56.431893 -22.412347 -11.615948 0.383033 -3.535175 0.000000 0.000000 0.000000 
-2772.790527 982.063049 1101.857056 14.562813 -0.606939 1.154269 -2.054883 10.163202 5.536967 1.501139 -1.415979 -1.209225 2.335081 1.725223 0.721229 0.351431 -1.276985 -0.884396 0.000000 0.000000 0.000000 0.367951 3.053648 -5.806511 -13.470057 0.825005 -15.424900 -2.671968 -20.506435 81.215446 0.000000 0.000000 0.000000 2.387366 9.815431 0.638143 1.696701 7.758198 15.383630 -8.636101 -82.310975 -19.768353 0.000000 0.000000 0.000000 -1.646148 -13.460079 -2.551596 -5.653389 32.289382 -9.342404 -2.574668 -4.470225 0.331146 0.000000 0.000000 0.000000 -8.916731 -7.980526 12.975845 -7.581554 57.419218 -22.207323 -9.680331 -0.924168 -2.627912 0.000000 0.000000 0.000000 
-2770.669189 985.818115 1105.046997 15.156826 -0.703495 1.215973 -2.093702 10.027242 5.559874 1.396634 -1.406840 -1.220990 2.212968 1.695023 0.738902 0.309231 -1.154709 -0.761000 0.000000 0.000000 0.000000 0.418007 3.124683 -5.953994 -13.494980 0.944471 -15.433327 -2.758412 -20.029861 80.800170 0.000000 0.000000 0.000000 2.343738 9.290323 0.541840 1.623771 7.445509 15.387877 -8.808925 -81.281823 -20.436305 0.000000 0.000000 0.000000 -1.872670 -12.862430 -2.829399 -5.730860 31.641793 -9.251845 -2.692034 -3.718063 0.050688 0.000000 0.000000 0.000000 -8.187766 -8.734752 12.971007 -7.004701 57.964690 -21.703315 -7.229551 -2.522947 -1.524518 0.000000 0.000000 0.000000 
-2768.929199 989.842163 1107.745972 15.628958 -0.791144 1.259659 -2.087892 9.908420 5.550861 1.270411 -1.405170 -1.226317 2.050580 1.677177 0.751908 0.278325 -1.095903 -0.660613 0.000000 0.000000 0.000000 0.433186 3.234875 -6.070216 -13.577049 1.070441 -15.452141 -2.883541 -19.990616 80.423154 0.000000 0.000000 0.000000 2.361423 8.818703 0.478995 1.564961 7.159214 15.291802 -8.968406 -80.369197 -21.188237 0.000000 0.000000 0.000000 -2.089164 -12.312522 -3.105234 -5.771354 31.015114 -9.148323 -2.770917 -3.036876 -0.192653 0.000000 0.000000 0.000000 -7.461267 -9.385845 12.883748 -6.397458 57.926428 -21.123344 -4.935368 -4.089470 -0.551009 0.000000 0.000000 0.000000 
-2767.493164 994.082520 1109.875000 15.954305 -0.886539 1.298526 -2.045101 9.825547 5.480581 1.130177 -1.419248 -1.222269 1.859890 1.677802 0.753954 0.264319 -1.129048 -0.596451 0.000000 0.000000 0.000000 0.403467 3.395095 -6.102816 -13.698258 1.196256 -15.466086 -3.033476 -20.418665 80.028109 0.000000 0.000000 0.000000 2.490797 8.376981 0.486565 1.489485 6.877974 15.054165 -9.132239 -79.418651 -21.995886 0.000000 0.000000 0.000000 -2.288077 -11.763943 -3.392053 -5.762903 30.368199 -9.024233 -2.807274 -2.468003 -0.384661 0.000000 0.000000 0.000000 -6.779739 -9.893946 12.735003 -5.778326 57.283696 -20.558495 -2.876147 -5.383485 0.228337 0.000000 0.000000 0.000000 
-2766.437988 998.591919 1111.512939 16.155968 -0.972942 1.317937 -1.967353 9.764450 5.384732 0.970974 -1.442433 -1.216179 1.638731 1.689400 0.752032 0.260716 -1.220540 -0.554638 0.000000 0.000000 0.000000 0.338505 3.594398 -6.106363 -13.872120 1.329427 -15.489825 -3.217740 -21.279489 79.667358 0.000000 0.000000 0.000000 2.677050 7.989585 0.527231 1.431507 6.620224 14.720318 -9.279441 -78.574933 -22.885473 0.000000 0.000000 0.000000 -2.472709 -11.264157 -3.679705 -5.720553 29.742957 -8.885249 -2.806540 -1.972914 -0.539180 0.000000 0.000000 0.000000 -6.104707 -10.274974 12.521760 -5.101766 56.054003 -19.928925 -0.956027 -6.524741 0.885452 0.000000 0.000000 0.000000 
-2765.803467 1003.400146 1112.600952 16.239042 -1.056436 1.320488 -1.845394 9.688000 5.275965 0.795110 -1.454757 -1.194626 1.388071 1.699622 0.745470 0.257612 -1.283238 -0.528964 0.000000 0.000000 0.000000 0.240350 3.785590 -6.137583 -14.080616 1.441985 -15.555454 -3.418468 -22.377223 79.391060 0.000000 0.000000 0.000000 2.806608 7.632409 0.529743 1.476682 6.389845 14.432175 -9.352271 -77.954923 -23.904684 0.000000 0.000000 0.000000 -2.641464 -10.850899 -3.967198 -5.649580 29.217851 -8.762614 -2.757216 -1.560856 -0.648620 0.000000 0.000000 0.000000 -5.538186 -10.523992 12.214409 -4.456926 54.202068 -19.185848 0.488529 -7.612870 1.341610 0.000000 0.000000 0.000000 
-2765.590088 1008.491394 1113.129028 16.182393 -1.151667 1.297622 -1.656898 9.593756 5.171202 0.611105 -1.449874 -1.159261 1.116778 1.695928 0.730174 0.252168 -1.277079 -0.522833 0.000000 0.000000 0.000000 0.075184 3.954092 -6.220041 -14.331950 1.526816 -15.658923 -3.643769 -23.728147 79.237838 0.000000 0.000000 0.000000 2.817188 7.297701 0.451940 1.672815 6.192416 14.281720 -9.322076 -77.671352 -25.078712 0.000000 0.000000 0.000000 -2.794931 -10.499941 -4.249665 -5.538212 28.772133 -8.644819 -2.646517 -1.237320 -0.706415 0.000000 0.000000 0.000000 -5.117764 -10.605431 11.821729 -3.884111 51.533394 -18.272591 1.281116 -8.625670 1.565818 0.000000 0.000000 0.000000 
-2765.797852 1013.880310 1113.108032 15.988558 -1.258303 1.240396 -1.432295 9.517264 5.087779 0.418568 -1.447942 -1.125504 0.838240 1.686635 0.707263 0.247484 -1.241054 -0.531826 0.000000 0.000000 0.000000 -0.124261 4.108661 -6.327937 -14.617969 1.582953 -15.808762 -3.886375 -25.315049 79.163686 0.000000 0.000000 0.000000 2.776076 6.983596 0.337218 1.975070 6.016468 14.182833 -9.219905 -77.609656 -26.395807 0.000000 0.000000 0.000000 -2.925372 -10.222989 -4.509637 -5.392854 28.423553 -8.548115 -2.484735 -0.992533 -0.719345 0.000000 0.000000 0.000000 -4.756598 -10.483396 11.342992 -3.334888 48.145345 -17.120920 1.598195 -9.294091 1.629557 0.000000 0.000000 0.000000 
-2766.455811 1019.644836 1112.511963 15.707692 -1.351289 1.159053 -1.232024 9.449329 5.020751 0.204250 -1.446849 -1.093673 0.550287 1.685637 0.695422 0.243834 -1.198255 -0.545817 0.000000 0.000000 0.000000 -0.267906 4.236348 -6.448398 -14.895823 1.591785 -16.057317 -4.106751 -26.894577 79.094309 0.000000 0.000000 0.000000 2.750748 6.674393 0.229040 2.331933 5.843181 14.019510 -9.076899 -77.552410 -27.854227 0.000000 0.000000 0.000000 -3.026235 -10.120844 -4.735123 -5.244840 28.310413 -8.546790 -2.291960 -0.819905 -0.696894 0.000000 0.000000 0.000000 -4.383215 -10.181126 10.731073 -2.793026 44.475493 -15.698005 1.657373 -9.431762 1.599439 0.000000 0.000000 0.000000 
-2767.539307 1025.937866 1111.218018 15.393941 -1.408729 1.055971 -1.060226 9.365938 4.979127 -0.065920 -1.446781 -1.055334 0.214183 1.706581 0.707845 0.242142 -1.148144 -0.568453 0.000000 0.000000 0.000000 -0.321517 4.351430 -6.597028 -15.154116 1.559506 -16.442107 -4.297782 -28.405514 79.033430 0.000000 0.000000 0.000000 2.788154 6.349095 0.127035 2.730677 5.654164 13.755920 -8.908059 -77.410609 -29.530742 0.000000 0.000000 0.000000 -3.133673 -10.279189 -4.917382 -5.112166 28.554388 -8.704831 -2.054355 -0.731462 -0.630319 0.000000 0.000000 0.000000 -4.006127 -9.685098 9.894914 -2.289003 40.245474 -13.778582 1.435706 -8.871591 1.429776 0.000000 0.000000 0.000000 
-2769.074951 1032.606079 1109.348999 14.966643 -1.475803 0.904327 -0.897524 9.340297 5.003251 -0.349251 -1.470964 -1.043622 -0.123923 1.734434 0.728357 0.241330 -1.090146 -0.595437 0.000000 0.000000 0.000000 -0.321461 4.428814 -6.749289 -15.397682 1.467779 -16.933959 -4.463788 -29.906892 78.967772 0.000000 0.000000 0.000000 2.844888 6.021147 0.031851 3.190133 5.457089 13.432554 -8.693626 -77.248861 -31.364590 0.000000 0.000000 0.000000 -3.218376 -10.588523 -5.021348 -4.959687 29.018703 -8.977777 -1.776971 -0.695347 -0.531338 0.000000 0.000000 0.000000 -3.655856 -8.922392 8.941818 -1.903550 35.644828 -11.581574 0.978946 -7.685270 1.132533 0.000000 0.000000 0.000000 
